<svg width="761" height="161" viewBox="0 0 761 161" fill="none" xmlns="http://www.w3.org/2000/svg">
<path d="M297.311 62.901C302.936 62.901 308.37 64.0069 313.616 66.2187C318.924 68.4306 323.284 71.9694 326.697 76.8354C330.173 81.7014 331.91 88.0524 331.91 95.8885V143H298.354V101.292C298.354 96.5521 297.311 92.9184 295.226 90.3906C293.204 87.7997 290.297 86.5042 286.505 86.5042C284.041 86.5042 281.671 87.1361 279.396 88.4C277.121 89.6639 275.288 91.4333 273.898 93.7083C272.508 95.9833 271.813 98.6375 271.813 101.671V143H238.256V12.5667H271.813V75.6979C272.571 73.6125 274.151 71.6219 276.552 69.726C279.017 67.767 282.05 66.1556 285.652 64.8917C289.254 63.5646 293.141 62.901 297.311 62.901ZM406.485 143V131.341C405.853 132.541 404.431 134.279 402.219 136.554C400.007 138.766 397.069 140.788 393.404 142.621C389.801 144.39 385.567 145.275 380.701 145.275C372.992 145.275 366.325 143.379 360.7 139.587C355.076 135.796 350.716 130.772 347.619 124.516C344.586 118.259 343.069 111.466 343.069 104.135C343.069 96.8049 344.586 90.0115 347.619 83.7552C350.716 77.499 355.076 72.475 360.7 68.6833C366.325 64.8285 372.992 62.901 380.701 62.901C385.315 62.901 389.328 63.5962 392.74 64.9865C396.216 66.3767 399.059 68.0198 401.271 69.9156C403.546 71.8115 405.158 73.6125 406.106 75.3187V65.176H439.472V143H406.485ZM375.962 104.135C375.962 106.916 376.625 109.475 377.953 111.814C379.28 114.089 381.081 115.89 383.356 117.217C385.631 118.544 388.222 119.207 391.129 119.207C394.035 119.207 396.595 118.544 398.807 117.217C401.082 115.89 402.851 114.089 404.115 111.814C405.442 109.475 406.106 106.916 406.106 104.135C406.106 101.355 405.442 98.8271 404.115 96.5521C402.851 94.2139 401.082 92.3812 398.807 91.0542C396.595 89.6639 394.035 88.9687 391.129 88.9687C388.222 88.9687 385.631 89.6639 383.356 91.0542C381.081 92.3812 379.28 94.2139 377.953 96.5521C376.625 98.8271 375.962 101.355 375.962 104.135ZM455.899 143V12.5667H489.266V75.3187C489.961 73.6125 491.446 71.8115 493.721 69.9156C495.996 67.9566 498.966 66.3135 502.632 64.9865C506.36 63.5962 510.563 62.901 515.239 62.901C522.886 62.901 529.489 64.8285 535.05 68.6833C540.612 72.475 544.877 77.499 547.847 83.7552C550.817 90.0115 552.303 96.8049 552.303 104.135C552.303 111.466 550.817 118.259 547.847 124.516C544.877 130.772 540.612 135.796 535.05 139.587C529.489 143.379 522.886 145.275 515.239 145.275C511.511 145.275 507.908 144.611 504.433 143.284C501.02 142.02 497.955 140.346 495.238 138.26C492.584 136.112 490.498 133.805 488.982 131.341V143H455.899ZM519.505 104.135C519.505 101.355 518.841 98.8271 517.514 96.5521C516.25 94.2139 514.481 92.3812 512.206 91.0542C509.931 89.6639 507.34 88.9687 504.433 88.9687C501.526 88.9687 498.935 89.6639 496.66 91.0542C494.385 92.3812 492.584 94.2139 491.257 96.5521C489.93 98.8271 489.266 101.355 489.266 104.135C489.266 106.916 489.93 109.475 491.257 111.814C492.584 114.089 494.385 115.89 496.66 117.217C498.935 118.544 501.526 119.207 504.433 119.207C507.34 119.207 509.931 118.544 512.206 117.217C514.481 115.89 516.25 114.089 517.514 111.814C518.841 109.475 519.505 106.916 519.505 104.135ZM565.529 143V65.176H598.99V143H565.529ZM582.686 53.2323C577.567 53.2323 573.207 51.4312 569.605 47.8292C566.066 44.2271 564.297 39.9299 564.297 34.9375C564.297 29.9451 566.066 25.6163 569.605 21.951C573.207 18.2858 577.567 16.4531 582.686 16.4531C586.035 16.4531 589.1 17.3062 591.881 19.0125C594.662 20.6556 596.905 22.8674 598.611 25.6479C600.317 28.4285 601.171 31.525 601.171 34.9375C601.171 39.9299 599.338 44.2271 595.673 47.8292C592.071 51.4312 587.742 53.2323 582.686 53.2323ZM610.254 65.176H622.767V33.2312H655.944V65.176H672.438V92.5708H655.944V107.738C655.944 110.455 656.291 112.793 656.987 114.752C657.745 116.648 659.325 117.596 661.726 117.596C663.18 117.596 664.475 117.28 665.613 116.648C666.75 115.953 667.445 115.479 667.698 115.226L678.883 138.924C678.378 139.303 676.83 140.03 674.239 141.104C671.711 142.115 668.488 143.063 664.57 143.948C660.715 144.833 656.418 145.275 651.678 145.275C643.273 145.275 636.354 142.968 630.919 138.355C625.484 133.679 622.767 126.506 622.767 116.837V92.5708H610.254V65.176ZM718.407 143H684.851V65.176H718.407V76.6458H717.933C718.565 75.2556 719.829 73.4861 721.725 71.3375C723.684 69.1889 726.401 67.2615 729.877 65.5552C733.416 63.7858 737.808 62.901 743.053 62.901C746.592 62.901 749.941 63.4698 753.101 64.6073C756.261 65.7448 758.567 66.8507 760.021 67.925L747.129 95.1302C746.307 93.9295 744.759 92.7288 742.484 91.5281C740.209 90.2642 737.397 89.6323 734.048 89.6323C730.256 89.6323 727.191 90.4854 724.853 92.1917C722.578 93.8347 720.935 95.8885 719.924 98.3531C718.913 100.818 718.407 103.187 718.407 105.462V143Z" fill="#0A6DA5"/>
<path fill-rule="evenodd" clip-rule="evenodd" d="M151.973 51.6929L101.137 65.3145L93.6851 57.8631L107.307 7.02638C108.661 1.9707 113.858 -1.02973 118.914 0.32549C123.969 1.68007 126.97 6.87664 125.615 11.9323L117.762 41.2372L147.067 33.3845C152.123 32.0299 157.32 35.0304 158.675 40.086C160.029 45.1417 157.029 50.3383 151.973 51.6929Z" fill="#4CEBC0"/>
<path fill-rule="evenodd" clip-rule="evenodd" d="M150.128 8.87184C153.829 12.5729 153.829 18.5738 150.128 22.2749L107.686 64.7162L94.2834 51.3138L136.725 8.87184C140.426 5.17138 146.427 5.17138 150.128 8.87184Z" fill="#00E2A5"/>
<path fill-rule="evenodd" clip-rule="evenodd" d="M125.883 96.6184C124.096 97.5118 16.9957 158.087 16.9957 158.087C11.2608 161.32 6.64743 162.035 2.6993 158.087C-1.2482 154.14 -0.533636 149.526 2.6993 143.791C2.6993 143.791 63.2746 36.6907 64.1686 34.904C65.0619 33.1166 71.1544 24.6107 79.5409 32.9966L127.79 81.2461C136.176 89.632 127.67 95.7251 125.883 96.6184Z" fill="#FC9502"/>
<path fill-rule="evenodd" clip-rule="evenodd" d="M84.0084 96.4352C84.9953 95.4483 86.5956 95.4483 87.5825 96.4352L101.487 110.34C100.004 111.176 98.4792 112.037 96.9174 112.919L84.0084 100.009C83.0215 99.0224 83.0215 97.4221 84.0084 96.4352ZM34.8656 111.625L50.0553 126.815C51.0422 127.802 51.0422 129.401 50.0553 130.389C49.0685 131.376 47.4681 131.376 46.4812 130.389L31.2915 115.199C30.3046 114.212 30.3046 112.612 31.2915 111.625C32.2783 110.638 33.8787 110.638 34.8656 111.625ZM19.6758 133.962C18.6889 134.949 17.0892 134.949 16.1023 133.962L11.0909 128.951C11.9078 127.507 12.7708 125.981 13.673 124.385L19.6758 130.389C20.6633 131.376 20.6633 132.975 19.6758 133.962ZM48.268 98.2225L35.613 85.5676C36.4767 84.0392 37.3378 82.5153 38.1939 80.9996L51.8421 94.6484C52.829 95.6353 52.829 97.2357 51.8421 98.2225C50.8552 99.2094 49.2555 99.2094 48.268 98.2225ZM89.8159 68.2903C88.829 69.2772 87.2287 69.2772 86.2418 68.2903L71.0527 53.1005C70.0658 52.1136 70.0658 50.5133 71.0527 49.5264C72.0395 48.5395 73.6399 48.5395 74.6268 49.5264L89.8159 64.7162C90.8028 65.7031 90.8028 67.3028 89.8159 68.2903Z" fill="#FF5134"/>
</svg>
