<svg width="159" height="161" viewBox="0 0 159 161" fill="none" xmlns="http://www.w3.org/2000/svg">
<path fill-rule="evenodd" clip-rule="evenodd" d="M151.973 51.6929L101.137 65.3145L93.6851 57.8631L107.307 7.02638C108.661 1.9707 113.858 -1.02973 118.914 0.32549C123.969 1.68007 126.97 6.87664 125.615 11.9323L117.762 41.2372L147.067 33.3845C152.123 32.0299 157.32 35.0304 158.675 40.086C160.029 45.1417 157.029 50.3383 151.973 51.6929Z" fill="#4CEBC0"/>
<path fill-rule="evenodd" clip-rule="evenodd" d="M150.128 8.87184C153.829 12.5729 153.829 18.5738 150.128 22.2749L107.686 64.7162L94.2834 51.3138L136.725 8.87184C140.426 5.17138 146.427 5.17138 150.128 8.87184Z" fill="#00E2A5"/>
<path fill-rule="evenodd" clip-rule="evenodd" d="M125.883 96.6184C124.096 97.5118 16.9957 158.087 16.9957 158.087C11.2608 161.32 6.64743 162.035 2.6993 158.087C-1.2482 154.14 -0.533636 149.526 2.6993 143.791C2.6993 143.791 63.2746 36.6907 64.1686 34.904C65.0619 33.1166 71.1544 24.6107 79.5409 32.9966L127.79 81.2461C136.176 89.632 127.67 95.7251 125.883 96.6184Z" fill="#FC9502"/>
<path fill-rule="evenodd" clip-rule="evenodd" d="M84.0084 96.4352C84.9953 95.4483 86.5956 95.4483 87.5825 96.4352L101.487 110.34C100.004 111.176 98.4792 112.037 96.9174 112.919L84.0084 100.009C83.0215 99.0224 83.0215 97.4221 84.0084 96.4352ZM34.8656 111.625L50.0553 126.815C51.0422 127.802 51.0422 129.401 50.0553 130.389C49.0685 131.376 47.4681 131.376 46.4812 130.389L31.2915 115.199C30.3046 114.212 30.3046 112.612 31.2915 111.625C32.2783 110.638 33.8787 110.638 34.8656 111.625ZM19.6758 133.962C18.6889 134.949 17.0892 134.949 16.1023 133.962L11.0909 128.951C11.9078 127.507 12.7708 125.981 13.673 124.385L19.6758 130.389C20.6633 131.376 20.6633 132.975 19.6758 133.962ZM48.268 98.2225L35.613 85.5676C36.4767 84.0392 37.3378 82.5153 38.1939 80.9996L51.8421 94.6484C52.829 95.6353 52.829 97.2357 51.8421 98.2225C50.8552 99.2094 49.2555 99.2094 48.268 98.2225ZM89.8159 68.2903C88.829 69.2772 87.2287 69.2772 86.2418 68.2903L71.0527 53.1005C70.0658 52.1136 70.0658 50.5133 71.0527 49.5264C72.0395 48.5395 73.6399 48.5395 74.6268 49.5264L89.8159 64.7162C90.8028 65.7031 90.8028 67.3028 89.8159 68.2903Z" fill="#FF5134"/>
</svg>
